<svg xmlns="http://www.w3.org/2000/svg" version="1.1" xmlns:xlink="http://www.w3.org/1999/xlink" xmlns:svgjs="http://svgjs.dev/svgjs" width="1440" height="560" preserveAspectRatio="none" viewBox="0 0 1440 560"><g mask="url(&quot;#SvgjsMask2570&quot;)" fill="none"><rect width="1440" height="560" x="0" y="0" fill="rgba(8, 152, 35, 1)"></rect><g transform="translate(0, 0)" stroke-linecap="round" stroke="url(&quot;#SvgjsLinearGradient2571&quot;)"><path d="M135 238.22 L135 321.78" stroke-width="11.25"></path><path d="M150 216.15 L150 343.86" stroke-width="11.25"></path><path d="M165 204.49 L165 355.51" stroke-width="11.25"></path><path d="M180 223.7 L180 336.3" stroke-width="11.25"></path><path d="M195 238.72 L195 321.27" stroke-width="11.25"></path><path d="M210 120.21 L210 439.79" stroke-width="11.25"></path><path d="M225 187.34 L225 372.65" stroke-width="11.25"></path><path d="M240 211.44 L240 348.56" stroke-width="11.25"></path><path d="M255 86.21 L255 473.79" stroke-width="11.25"></path><path d="M270 144.52 L270 415.48" stroke-width="11.25"></path><path d="M285 113.5 L285 446.5" stroke-width="11.25"></path><path d="M300 112.97 L300 447.03" stroke-width="11.25"></path><path d="M315 67.98 L315 492.02" stroke-width="11.25"></path><path d="M330 106.78 L330 453.23" stroke-width="11.25"></path><path d="M345 106.9 L345 453.1" stroke-width="11.25"></path><path d="M360 80.94 L360 479.06" stroke-width="11.25"></path><path d="M375 256.61 L375 303.39" stroke-width="11.25"></path><path d="M390 194.13 L390 365.87" stroke-width="11.25"></path><path d="M405 225.99 L405 334.01" stroke-width="11.25"></path><path d="M420 126.25 L420 433.75" stroke-width="11.25"></path><path d="M435 234.86 L435 325.14" stroke-width="11.25"></path><path d="M450 167.36 L450 392.64" stroke-width="11.25"></path><path d="M465 128.9 L465 431.1" stroke-width="11.25"></path><path d="M480 169.47 L480 390.53" stroke-width="11.25"></path><path d="M495 80.6 L495 479.4" stroke-width="11.25"></path><path d="M510 234.64 L510 325.36" stroke-width="11.25"></path><path d="M525 75.29 L525 484.71" stroke-width="11.25"></path><path d="M540 113.94 L540 446.06" stroke-width="11.25"></path><path d="M555 164.38 L555 395.62" stroke-width="11.25"></path><path d="M570 56.65 L570 503.35" stroke-width="11.25"></path><path d="M585 149.21 L585 410.79" stroke-width="11.25"></path><path d="M600 251.97 L600 308.04" stroke-width="11.25"></path><path d="M615 155.45 L615 404.55" stroke-width="11.25"></path><path d="M630 145.29 L630 414.71" stroke-width="11.25"></path><path d="M645 244.16 L645 315.84" stroke-width="11.25"></path><path d="M660 72.15 L660 487.86" stroke-width="11.25"></path><path d="M675 187.55 L675 372.45" stroke-width="11.25"></path><path d="M690 116.04 L690 443.96" stroke-width="11.25"></path><path d="M705 141.84 L705 418.15" stroke-width="11.25"></path><path d="M720 81.21 L720 478.79" stroke-width="11.25"></path><path d="M735 251.31 L735 308.69" stroke-width="11.25"></path><path d="M750 109.25 L750 450.75" stroke-width="11.25"></path><path d="M765 218.71 L765 341.29" stroke-width="11.25"></path><path d="M780 249.3 L780 310.7" stroke-width="11.25"></path><path d="M795 99.66 L795 460.34" stroke-width="11.25"></path><path d="M810 252.53 L810 307.48" stroke-width="11.25"></path><path d="M825 185.38 L825 374.62" stroke-width="11.25"></path><path d="M840 133.79 L840 426.21" stroke-width="11.25"></path><path d="M855 207.47 L855 352.53" stroke-width="11.25"></path><path d="M870 221.57 L870 338.43" stroke-width="11.25"></path><path d="M885 141.55 L885 418.45" stroke-width="11.25"></path><path d="M900 104.19 L900 455.81" stroke-width="11.25"></path><path d="M915 221.31 L915 338.69" stroke-width="11.25"></path><path d="M930 251.07 L930 308.93" stroke-width="11.25"></path><path d="M945 137.59 L945 422.41" stroke-width="11.25"></path><path d="M960 102.81 L960 457.19" stroke-width="11.25"></path><path d="M975 176.72 L975 383.28" stroke-width="11.25"></path><path d="M990 107.98 L990 452.02" stroke-width="11.25"></path><path d="M1005 57.93 L1005 502.07" stroke-width="11.25"></path><path d="M1020 102.3 L1020 457.7" stroke-width="11.25"></path><path d="M1035 133.45 L1035 426.55" stroke-width="11.25"></path><path d="M1050 104.69 L1050 455.31" stroke-width="11.25"></path><path d="M1065 188.68 L1065 371.32" stroke-width="11.25"></path><path d="M1080 153.68 L1080 406.32" stroke-width="11.25"></path><path d="M1095 139.5 L1095 420.5" stroke-width="11.25"></path><path d="M1110 125.8 L1110 434.2" stroke-width="11.25"></path><path d="M1125 180.69 L1125 379.31" stroke-width="11.25"></path><path d="M1140 177.77 L1140 382.23" stroke-width="11.25"></path><path d="M1155 75.16 L1155 484.84" stroke-width="11.25"></path><path d="M1170 243.35 L1170 316.64" stroke-width="11.25"></path><path d="M1185 243.03 L1185 316.97" stroke-width="11.25"></path><path d="M1200 159.44 L1200 400.56" stroke-width="11.25"></path><path d="M1215 164.1 L1215 395.9" stroke-width="11.25"></path><path d="M1230 210.99 L1230 349.01" stroke-width="11.25"></path><path d="M1245 254.61 L1245 305.39" stroke-width="11.25"></path><path d="M1260 83.43 L1260 476.57" stroke-width="11.25"></path><path d="M1275 72.99 L1275 487.01" stroke-width="11.25"></path><path d="M1290 130.13 L1290 429.87" stroke-width="11.25"></path><path d="M1305 187.69 L1305 372.31" stroke-width="11.25"></path></g></g><defs><mask id="SvgjsMask2570"><rect width="1440" height="560" fill="#ffffff"></rect></mask><linearGradient x1="122.39999999999998" y1="280" x2="1317.6" y2="280" gradientUnits="userSpaceOnUse" id="SvgjsLinearGradient2571"><stop stop-color="#3a7cc3" offset="0"></stop><stop stop-color="rgba(209, 26, 26, 1)" offset="1"></stop></linearGradient></defs></svg>